<svg xmlns="http://www.w3.org/2000/svg" viewBox="0 0 400 400"><path d="M373.796 0c-1.401.296-58.59 13.196-119.521 33.27-31.135 10.258-63.707 22.604-91.675 36.844s-51.53 29.753-64.726 50.076c-24.149 37.188-29.125 88.272-29.221 130.21-.077 33.228 3.3 60.853 4.72 71.02L0 400l36.716-.113L94.14 338.03c12.415 1.705 35.061 4.29 60.943 4.637 38.881.521 84.844-2.838 115.578-26.189 16.182-12.295 30.478-34.077 45.004-60.365 14.527-26.288 28.647-57.071 41.11-86.546C381.706 110.62 400 56.781 400 56.781l-22.875-9.024s-18.045 53.059-42.518 110.93a1275 1275 0 0 1-13.77 31.409h-67.512v26.242h55.092c-4.528 9.186-9.107 18.069-13.685 26.353a396 396 0 0 1-3.186 5.644h-83.794v26.242h67.059c-6.782 9.415-13.077 16.57-18.192 20.456-21.509 16.343-64.359 21.888-101.23 21.394-15.755-.211-28.86-1.146-39.17-2.181l274.076-295.23zm-33.342 35.388L95.22 298.023c-1.15-11.426-2.252-27.311-2.205-47.556.09-39.462 6.037-86.306 24.822-115.234 3.64-5.605 9.681-11.706 17.54-17.92v78.474h24.362v-94.746a286 286 0 0 1 13.272-7.203 417 417 0 0 1 16.434-7.89v54.288h24.362v-64.65c15.578-6.222 31.751-12 47.593-17.22 29.504-9.72 57.73-17.509 79.054-22.978"/></svg>