<svg xmlns="http://www.w3.org/2000/svg" width="60" height="60" viewBox="0 0 60 60"><path fill-rule="evenodd" d="M55 50a1 1 0 0 0 1-1V13a1 1 0 1 0-2 0v36a1 1 0 0 0 1 1m3 5v-1h-3a1 1 0 1 1 0-2h3V10h-3a1 1 0 1 1 0-2h2.382L55 3.236l-3 6V55c0 1.654 1.346 3 3 3s3-1.346 3-3m2.02-46q0 .102-.02.2V55c0 2.757-2.243 5-5 5s-5-2.243-5-5V9c0-.155.036-.309.105-.447l4-8c.34-.678 1.45-.678 1.79 0l3.919 7.839A1 1 0 0 1 60.02 9M31 30H21a1 1 0 1 0 0 2h10a1 1 0 1 0 0-2m-10-2h6a1 1 0 1 0 0-2h-6a1 1 0 1 0 0 2m-5 8h20V22H16zm-2 1V21a1 1 0 0 1 1-1h22a1 1 0 0 1 1 1v16a1 1 0 0 1-1 1H15a1 1 0 0 1-1-1M2 9.087V55c0 1.598 1.402 3 3 3h38c1.598 0 3-1.402 3-3V10H5c-.823 0-1.997-.237-3-.913M47 2H4c-1.103 0-2 .897-2 2v1c0 2.823 2.504 2.994 3.006 3H47a1 1 0 0 1 1 1v46c0 2.71-2.29 5-5 5H5c-2.71 0-5-2.29-5-5V4c0-2.206 1.794-4 4-4h43a1 1 0 1 1 0 2M5 56a1 1 0 0 0 1-1V13a1 1 0 1 0-2 0v42a1 1 0 0 0 1 1M45 4a1 1 0 1 1 0 2H5a1 1 0 1 1 0-2z"/></svg>